<svg id="Layer_1" enable-background="new 0 0 512.064 512.064" height="512" viewBox="0 0 512.064 512.064" width="512" xmlns="http://www.w3.org/2000/svg"><g><path d="m437.074 74.99c-48.358-48.358-112.654-74.99-181.042-74.99s-132.684 26.632-181.042 74.99-74.99 112.653-74.99 181.041 26.632 132.685 74.99 181.042c48.358 48.358 112.653 74.99 181.042 74.99s132.684-26.632 181.042-74.99c48.358-48.357 74.99-112.653 74.99-181.042s-26.632-132.683-74.99-181.041z" fill="#2d2570"/><path d="m75.182 437.261c48.336 48.238 112.551 74.803 180.85 74.803 68.389 0 132.684-26.632 181.042-74.99 48.358-48.357 74.99-112.653 74.99-181.042 0-68.299-26.565-132.514-74.803-180.85z" fill="#16202d"/><ellipse cx="256.032" cy="256.032" fill="#ff7169" rx="128.477" ry="128.477" transform="matrix(.707 -.707 .707 .707 -106.052 256.032)"/><path d="m165.419 347.023c23.249 23.153 55.288 37.485 90.613 37.485 70.843 0 128.477-57.635 128.477-128.477 0-35.325-14.333-67.364-37.486-90.612z" fill="#ff5178"/><path d="m256.032 201.961c-29.815 0-54.071 24.256-54.071 54.07 0 29.815 24.256 54.071 54.071 54.071s54.071-24.256 54.071-54.071c0-29.814-24.256-54.07-54.071-54.07z" fill="#fff"/><g><path d="m349.268 58.686h178.22v30h-178.22z" fill="#dff5ff" transform="matrix(.707 -.707 .707 .707 76.295 331.562)"/></g><path d="m354.666 71.717h178.22v14.732h-178.22z" fill="#bfebff" transform="matrix(.707 -.707 .707 .707 74.059 336.96)"/><g><path d="m276.487 196.091h48.97v30h-48.97z" fill="#dff5ff" transform="matrix(.707 -.707 .707 .707 -61.111 274.651)"/></g><path d="m281.886 209.123h48.969v14.732h-48.969z" fill="#bfebff" transform="matrix(.707 -.707 .707 .707 -63.347 280.047)"/><g><path d="m97.505 212.489-28.934-7.928c17.891-65.293 69.482-117.261 134.639-135.622l8.138 28.875c-55.094 15.525-98.715 59.467-113.843 114.675z" fill="#0556b2"/></g><g><path d="m308.854 443.125-8.138-28.875c55.094-15.525 98.715-59.467 113.842-114.676l28.934 7.928c-17.89 65.293-69.48 117.261-134.638 135.623z" fill="#0556b2"/></g><path d="m352.234 92.349-44.555 44.556c-9.013 9.012-13.976 20.994-13.976 33.74 0 12.745 4.963 24.728 13.975 33.739 9.012 9.013 20.995 13.977 33.741 13.977s24.729-4.964 33.74-13.977l44.555-44.555z" fill="#bfebff"/><g><path d="m308.854 443.125-8.138-28.875c55.094-15.525 98.715-59.467 113.842-114.676l28.934 7.928c-17.89 65.293-69.48 117.261-134.638 135.623z" fill="#2d2570"/></g><path d="m307.873 204.569c8.99 8.892 20.89 13.791 33.546 13.791 12.746 0 24.729-4.964 33.74-13.977l44.555-44.555-33.551-33.551z" fill="#7ed7ff"/></g></svg>