<?xml version="1.0" encoding="utf-8"?>
<!-- Generator: Adobe Illustrator 16.0.0, SVG Export Plug-In . SVG Version: 6.00 Build 0)  -->
<!DOCTYPE svg PUBLIC "-//W3C//DTD SVG 1.1//EN" "http://www.w3.org/Graphics/SVG/1.1/DTD/svg11.dtd">
<svg version="1.1" id="Layer_1" xmlns="http://www.w3.org/2000/svg" xmlns:xlink="http://www.w3.org/1999/xlink" x="0px" y="0px"
	 width="267.29px" height="85.04px" viewBox="0 0 267.29 85.04" enable-background="new 0 0 267.29 85.04" xml:space="preserve">
<g>
	<path fill="#2D2B70" d="M67.919,17.31c-7.413-6.086-17.271-9.437-27.754-9.437c-10.484,0-20.341,3.351-27.754,9.437
		C4.999,23.394,0.916,31.484,0.916,40.09s4.083,16.695,11.496,22.779c7.413,6.086,17.27,9.438,27.754,9.438
		c10.483,0,20.341-3.352,27.754-9.438c7.413-6.084,11.496-14.174,11.496-22.779C79.416,31.483,75.333,23.394,67.919,17.31
		L67.919,17.31z"/>
	<path fill="#17202D" d="M12.44,62.893c7.41,6.07,17.254,9.412,27.726,9.412c10.483,0,20.341-3.35,27.754-9.436
		c7.413-6.084,11.496-14.176,11.496-22.78c0-8.594-4.072-16.674-11.468-22.756L12.44,62.893z"/>
	<path fill="#F3716A" d="M26.231,28.661c7.69-6.313,20.159-6.313,27.851,0c7.689,6.312,7.689,16.546,0,22.858
		c-7.69,6.313-20.159,6.313-27.851,0C18.542,45.207,18.542,34.973,26.231,28.661z"/>
	<path fill="#F05479" d="M26.274,51.539c3.563,2.914,8.477,4.717,13.892,4.717c10.859,0,19.694-7.252,19.694-16.166
		c0-4.445-2.196-8.478-5.745-11.402L26.274,51.539z"/>
	<path fill="#FFFFFF" d="M40.166,33.287c-4.57,0-8.289,3.052-8.289,6.803s3.719,6.803,8.289,6.803c4.569,0,8.289-3.052,8.289-6.803
		S44.735,33.287,40.166,33.287L40.166,33.287z"/>
	<g>
		<path fill="#E0F3FD" d="M56.828,23.743L76.142,7.889l3.252,2.668L60.079,26.413L56.828,23.743z"/>
	</g>
	<path fill="#C2E8FB" d="M58.481,25.101L77.797,9.247l1.597,1.31L60.079,26.413L58.481,25.101z"/>
	<g>
		<path fill="#E0F3FD" d="M42.766,35.28l5.309-4.356l3.251,2.669l-5.309,4.356L42.766,35.28z"/>
	</g>
	<path fill="#C2E8FB" d="M44.421,36.638l5.308-4.355l1.598,1.311l-5.309,4.356L44.421,36.638z"/>
	<g>
		<path fill="#1F59A8" d="M15.862,34.609l-4.436-0.996c2.743-8.217,10.652-14.757,20.641-17.066l1.247,3.633
			C24.87,22.134,18.181,27.664,15.862,34.609L15.862,34.609z"/>
	</g>
	<g>
		<path fill="#1F59A8" d="M48.262,63.631l-1.248-3.633c8.446-1.953,15.134-7.482,17.452-14.43l4.437,0.996
			C66.161,54.781,58.251,61.322,48.262,63.631z"/>
	</g>
	<path fill="#C2E8FB" d="M54.914,19.494L48.083,25.1c-1.381,1.134-2.143,2.643-2.143,4.246c0,1.604,0.762,3.111,2.143,4.245
		c1.382,1.135,3.219,1.758,5.173,1.758s3.791-0.624,5.172-1.758l6.831-5.606L54.914,19.494z"/>
	<g>
		<path fill="#2D2B70" d="M48.262,63.631l-1.248-3.633c8.446-1.953,15.134-7.482,17.452-14.43l4.437,0.996
			C66.161,54.781,58.251,61.322,48.262,63.631z"/>
	</g>
	<path fill="#83D5F7" d="M48.112,33.614c1.379,1.119,3.202,1.734,5.144,1.734c1.954,0,3.791-0.625,5.172-1.758l6.831-5.606
		l-5.144-4.222L48.112,33.614z"/>
</g>
<g id="svgGroup">
	<path vector-effect="non-scaling-stroke" fill="#17202D" stroke="#010101" stroke-width="0.7087" stroke-linecap="round" d="
		M226.744,38.924v5.348c0,0.309-0.029,0.613-0.086,0.916c-0.047,0.268-0.111,0.531-0.191,0.791c-0.189,0.617-0.496,1.193-0.9,1.697
		c-0.416,0.523-0.957,0.961-1.627,1.313c-0.373,0.193-0.771,0.33-1.188,0.41c-0.338,0.068-0.699,0.105-1.084,0.113
		c-0.057,0.002-0.111,0.002-0.168,0.002h-6.869c-0.307,0-0.613-0.029-0.916-0.084c-0.268-0.049-0.531-0.113-0.791-0.193
		c-0.619-0.189-1.195-0.494-1.699-0.9c-0.52-0.414-0.959-0.955-1.311-1.625c-0.193-0.375-0.332-0.775-0.412-1.189
		c-0.068-0.336-0.105-0.697-0.113-1.082c-0.002-0.057-0.002-0.111-0.002-0.168c0.002-0.295,0.027-0.589,0.078-0.878
		c0.049-0.283,0.117-0.563,0.199-0.837c0.189-0.62,0.496-1.199,0.902-1.705c0.414-0.522,0.957-0.96,1.625-1.312
		c0.375-0.193,0.775-0.332,1.189-0.412c0.336-0.067,0.697-0.105,1.084-0.114c0.055-0.001,0.111-0.002,0.166-0.002h6.869v3.634
		h-6.869c-0.166-0.002-0.33,0.018-0.492,0.057c-0.273,0.063-0.521,0.211-0.709,0.42c-0.246,0.275-0.393,0.627-0.418,0.997
		c-0.004,0.061-0.008,0.121-0.006,0.182c-0.002,0.168,0.018,0.334,0.063,0.496c0.07,0.262,0.219,0.494,0.426,0.668
		c0.324,0.277,0.74,0.426,1.166,0.418h6.84c0.166,0.002,0.332-0.018,0.492-0.055c0.273-0.064,0.521-0.207,0.709-0.414
		c0.24-0.266,0.385-0.602,0.414-0.957c0.008-0.07,0.012-0.143,0.012-0.213v-5.319c0-0.498-0.154-0.893-0.463-1.186
		c-0.266-0.256-0.613-0.407-0.98-0.434c-0.061-0.005-0.121-0.007-0.184-0.007h-8.363V33.68h8.363
		c0.309,0.002,0.615,0.03,0.916,0.087c0.268,0.048,0.531,0.112,0.791,0.192c0.619,0.188,1.195,0.496,1.699,0.9
		c0.523,0.414,0.959,0.956,1.313,1.626c0.191,0.374,0.33,0.774,0.41,1.188c0.066,0.337,0.105,0.698,0.113,1.084
		C226.744,38.813,226.744,38.869,226.744,38.924z M262.049,44.17h-6.871v-3.62h6.871c0.164,0.002,0.33-0.017,0.49-0.056
		c0.275-0.063,0.521-0.211,0.709-0.42c0.246-0.276,0.393-0.627,0.418-0.996c0.006-0.062,0.008-0.122,0.008-0.184
		c0.002-0.167-0.02-0.334-0.063-0.495c-0.066-0.262-0.211-0.498-0.414-0.678c-0.307-0.274-0.705-0.426-1.119-0.424
		c-0.01,0-0.02,0-0.029-0.001l-6.871,0.001c-0.166-0.001-0.332,0.018-0.492,0.057c-0.273,0.063-0.52,0.21-0.709,0.42
		c-0.246,0.276-0.393,0.627-0.418,0.996c-0.004,0.062-0.008,0.121-0.006,0.184v5.317c0,0.508,0.158,0.902,0.475,1.186
		c0.277,0.246,0.627,0.393,0.996,0.418c0.063,0.004,0.123,0.008,0.186,0.006h6.842v3.633h-6.871c-0.307,0-0.613-0.029-0.916-0.084
		c-0.268-0.049-0.531-0.113-0.791-0.191c-0.617-0.191-1.195-0.496-1.699-0.902c-0.521-0.414-0.959-0.955-1.311-1.625
		c-0.193-0.375-0.332-0.775-0.412-1.189c-0.066-0.336-0.105-0.697-0.113-1.082c-0.002-0.057-0.002-0.111-0.002-0.168v-5.348
		c0-0.307,0.029-0.613,0.086-0.915c0.049-0.267,0.113-0.531,0.191-0.791c0.189-0.618,0.496-1.194,0.902-1.698
		c0.412-0.522,0.955-0.96,1.625-1.312c0.375-0.193,0.773-0.332,1.188-0.412c0.336-0.067,0.697-0.105,1.084-0.114
		c0.055-0.001,0.111-0.002,0.166-0.002h6.871c0.307,0.002,0.613,0.03,0.916,0.087c0.266,0.048,0.529,0.112,0.789,0.192
		c0.619,0.189,1.195,0.496,1.699,0.9c0.521,0.414,0.959,0.956,1.313,1.626c0.193,0.374,0.33,0.774,0.41,1.188
		c0.068,0.337,0.105,0.698,0.113,1.084c0.002,0.056,0.002,0.111,0.002,0.166c0,0.308-0.029,0.614-0.086,0.916
		c-0.047,0.268-0.111,0.531-0.191,0.791c-0.188,0.618-0.496,1.195-0.898,1.699c-0.416,0.521-0.957,0.96-1.629,1.312
		c-0.371,0.193-0.771,0.332-1.188,0.411c-0.338,0.068-0.699,0.105-1.084,0.115C262.158,44.168,262.104,44.17,262.049,44.17z
		 M142.209,49.514h-10.313v-3.807h10.284c0.518,0,0.908-0.133,1.172-0.396c0.234-0.232,0.365-0.561,0.391-0.979
		c0.004-0.055,0.006-0.107,0.006-0.162c-0.008-0.209-0.043-0.414-0.105-0.613c-0.201-0.606-0.678-0.911-1.434-0.911h-5.902
		c-0.322,0.001-0.643-0.021-0.961-0.071c-0.438-0.07-0.831-0.193-1.178-0.367c-0.307-0.151-0.596-0.335-0.863-0.547
		c-0.207-0.165-0.395-0.351-0.564-0.553c-0.365-0.438-0.63-0.913-0.791-1.421c-0.161-0.509-0.242-0.981-0.242-1.422
		c-0.001-0.317,0.021-0.636,0.071-0.95c0.058-0.35,0.146-0.669,0.271-0.958c0.033-0.081,0.07-0.159,0.111-0.236
		c0.168-0.326,0.374-0.631,0.612-0.908c0.16-0.186,0.338-0.354,0.529-0.505c0.459-0.361,0.957-0.623,1.494-0.784
		c0.538-0.161,1.042-0.242,1.51-0.242h9.359v3.811h-9.33c-0.059,0-0.115,0.002-0.172,0.006c-0.113,0.01-0.207,0.027-0.283,0.057
		c-0.002,0.001-0.004,0.002-0.008,0.003c-0.039,0.017-0.076,0.034-0.113,0.057c-0.039,0.022-0.074,0.051-0.102,0.08
		c-0.012,0.014-0.023,0.025-0.033,0.04c-0.055,0.072-0.086,0.15-0.096,0.233c-0.008,0.07-0.014,0.142-0.014,0.212
		c0,0.011,0,0.021,0,0.03c0.006,0.103,0.02,0.188,0.043,0.262c0.012,0.036,0.025,0.071,0.043,0.104
		c0.02,0.034,0.043,0.066,0.068,0.098c0.033,0.038,0.072,0.068,0.115,0.092c0.057,0.03,0.117,0.05,0.182,0.061
		c0.021,0.003,0.045,0.006,0.068,0.007c0.088,0.005,0.174,0.008,0.262,0.008c0.004,0,0.006,0,0.01,0h5.902
		c0.375-0.002,0.748,0.027,1.117,0.087c0.51,0.085,0.967,0.231,1.371,0.44c0.367,0.186,0.711,0.411,1.025,0.676
		c0.23,0.195,0.441,0.413,0.629,0.649c0.42,0.531,0.729,1.11,0.916,1.734c0.191,0.626,0.287,1.207,0.287,1.745
		c0,0.311-0.021,0.623-0.063,0.932c-0.037,0.281-0.102,0.561-0.188,0.832c-0.092,0.297-0.211,0.586-0.352,0.863
		c-0.092,0.178-0.193,0.35-0.309,0.514c-0.258,0.379-0.574,0.715-0.936,0.998c-0.004,0.004-0.012,0.008-0.018,0.014
		c-0.359,0.277-0.74,0.506-1.135,0.682s-0.795,0.305-1.201,0.389c-0.229,0.047-0.465,0.082-0.699,0.104
		C142.51,49.508,142.359,49.514,142.209,49.514z M191.926,40.727v8.787h-3.809v-8.787c0.002-0.252-0.023-0.504-0.072-0.75
		c-0.041-0.203-0.102-0.399-0.184-0.591c-0.148-0.346-0.355-0.662-0.615-0.935c-0.025-0.028-0.053-0.057-0.082-0.083
		c-0.293-0.283-0.637-0.501-1.031-0.652c-0.344-0.13-0.705-0.204-1.07-0.222c-0.068-0.004-0.141-0.005-0.213-0.005h-6.664v12.024
		h-3.809V35.569c-0.002-0.229,0.039-0.454,0.119-0.669c0.008-0.023,0.018-0.048,0.027-0.07c0.096-0.227,0.234-0.431,0.41-0.601
		c0.176-0.172,0.381-0.306,0.615-0.402c0.236-0.1,0.49-0.148,0.748-0.147h8.584c0.326,0.002,0.652,0.025,0.977,0.07
		c0.18,0.023,0.359,0.055,0.539,0.091c0.527,0.108,1.041,0.275,1.533,0.498c0.016,0.008,0.031,0.015,0.049,0.021
		c0.531,0.244,1.031,0.551,1.494,0.909c0.449,0.351,0.848,0.763,1.182,1.225c0.025,0.036,0.053,0.071,0.078,0.108
		c0.268,0.385,0.49,0.8,0.666,1.235c0.076,0.188,0.145,0.38,0.205,0.573c0.125,0.402,0.211,0.816,0.26,1.236
		C191.906,40.007,191.926,40.366,191.926,40.727z M109.411,45.707v3.807H92.038c-0.273,0-0.527-0.047-0.763-0.145
		c-0.234-0.1-0.437-0.232-0.607-0.404c-0.17-0.17-0.306-0.373-0.402-0.607c-0.087-0.209-0.136-0.434-0.145-0.658
		c-0.002-0.035-0.002-0.068-0.002-0.104V28.509h3.809v17.198H109.411z M244.85,33.68h4.043c-0.43,1.339-0.932,2.657-1.508,3.955
		c-0.568,1.286-1.232,2.527-1.984,3.714c-0.736,1.162-1.574,2.255-2.506,3.269c-0.908,0.986-1.938,1.857-3.063,2.592
		c-1.131,0.732-2.357,1.311-3.646,1.713c-1.008,0.314-2.051,0.51-3.105,0.582c-0.387,0.027-0.775,0.041-1.164,0.041
		c-0.256,0.002-0.51-0.049-0.748-0.146c-0.234-0.098-0.439-0.23-0.613-0.402c-0.176-0.17-0.316-0.373-0.412-0.6
		s-0.145-0.471-0.145-0.717c0-0.008,0-0.016,0-0.023V33.681h3.811V45.59c0.924,0.002,1.836-0.203,2.672-0.6
		c0.793-0.373,1.535-0.848,2.209-1.407c0.072-0.061,0.145-0.12,0.215-0.183c0.762-0.658,1.469-1.408,2.117-2.249
		c0.65-0.84,1.229-1.701,1.736-2.585c0.338-0.587,0.652-1.187,0.938-1.799c0.125-0.266,0.244-0.532,0.357-0.803
		c0.127-0.303,0.248-0.609,0.361-0.918c0.125-0.337,0.232-0.657,0.322-0.962C244.777,33.951,244.814,33.814,244.85,33.68z
		 M164.357,33.68v3.811h-6.65v12.023h-3.854V37.49h-4.951V33.68h4.951v-5.171h3.854v5.171H164.357z M129.011,39.012v5.158
		c0,0.311-0.021,0.623-0.063,0.932c-0.037,0.281-0.101,0.561-0.187,0.832c-0.093,0.297-0.211,0.586-0.353,0.863
		c-0.092,0.178-0.194,0.35-0.309,0.514c-0.258,0.379-0.574,0.715-0.935,0.998c-0.005,0.004-0.012,0.008-0.018,0.014
		c-0.36,0.277-0.739,0.506-1.135,0.682s-0.797,0.305-1.201,0.389c-0.229,0.047-0.465,0.082-0.699,0.104
		c-0.149,0.014-0.301,0.02-0.45,0.02h-6.87c-0.29,0-0.581-0.025-0.868-0.074c-0.291-0.051-0.578-0.117-0.861-0.201
		c-0.632-0.189-1.222-0.502-1.734-0.916c-0.532-0.426-0.977-0.979-1.333-1.656c-0.355-0.678-0.534-1.51-0.534-2.496v-5.157
		c-0.001-0.373,0.028-0.747,0.089-1.115c0.086-0.509,0.234-0.964,0.445-1.366c0.194-0.376,0.432-0.729,0.707-1.05
		c0.188-0.222,0.397-0.424,0.626-0.605c0.514-0.415,1.104-0.727,1.734-0.915c0.279-0.083,0.563-0.15,0.849-0.2
		c0.309-0.053,0.602-0.079,0.882-0.079h6.87c0.375-0.001,0.748,0.027,1.118,0.088c0.509,0.085,0.966,0.231,1.371,0.44
		c0.366,0.186,0.711,0.413,1.025,0.676c0.23,0.195,0.441,0.412,0.629,0.649c0.42,0.531,0.728,1.11,0.916,1.735
		C128.916,37.894,129.011,38.476,129.011,39.012z M209.123,33.68v3.811h-8.568c-0.355,0-0.652,0.061-0.889,0.183
		c-0.104,0.054-0.199,0.123-0.283,0.205c-0.148,0.147-0.258,0.331-0.316,0.532c-0.053,0.177-0.08,0.378-0.08,0.603v10.503h-3.809
		V39.013c-0.002-0.311,0.021-0.621,0.064-0.93c0.037-0.28,0.102-0.558,0.188-0.827c0.098-0.312,0.223-0.611,0.377-0.898
		c0.086-0.163,0.182-0.319,0.289-0.472c0.242-0.348,0.531-0.661,0.857-0.931c0.031-0.027,0.066-0.055,0.102-0.08
		c0.361-0.278,0.74-0.505,1.135-0.682c0.396-0.176,0.797-0.306,1.201-0.389c0.215-0.044,0.432-0.077,0.65-0.1
		c0.16-0.018,0.32-0.024,0.482-0.025H209.123z M170.729,33.68v15.834h-3.807V33.68H170.729z M125.202,44.17v-5.128
		c0.001-0.146-0.012-0.29-0.035-0.435c-0.056-0.313-0.175-0.56-0.36-0.737c-0.146-0.14-0.325-0.241-0.52-0.297
		c-0.132-0.041-0.274-0.066-0.433-0.077c-0.063-0.005-0.127-0.007-0.19-0.007h-6.842c-0.146-0.002-0.295,0.012-0.439,0.037
		c-0.167,0.031-0.315,0.082-0.445,0.151c-0.1,0.053-0.19,0.12-0.271,0.198c-0.148,0.147-0.256,0.331-0.314,0.532
		c-0.055,0.177-0.082,0.378-0.082,0.603v5.157c0,0.15,0.015,0.301,0.043,0.447c0.035,0.176,0.095,0.332,0.176,0.467
		c0.051,0.084,0.109,0.16,0.179,0.229c0.146,0.145,0.326,0.25,0.522,0.309c0.186,0.059,0.396,0.088,0.635,0.088h6.841
		c0.146,0,0.292-0.014,0.436-0.037c0.305-0.057,0.545-0.176,0.722-0.357c0.14-0.146,0.24-0.326,0.298-0.52
		c0.04-0.131,0.064-0.275,0.076-0.434C125.199,44.297,125.202,44.232,125.202,44.17z M170.729,26.985v3.441h-3.807v-3.441H170.729z"
		/>
</g>
</svg>
