<svg width="177.173" height="22.559" viewBox="0 0 177.173 22.559" xmlns="http://www.w3.org/2000/svg"><g id="svgGroup" stroke-linecap="round" fill-rule="evenodd" font-size="9pt" stroke="#000" stroke-width="0.25mm" fill="none" style="stroke:#000;stroke-width:0.25mm;fill:none"><path d="M 136.626 11.938 L 136.626 17.285 A 5.185 5.185 0 0 1 136.54 18.201 A 6.934 6.934 0 0 1 136.348 18.992 A 5.1 5.1 0 0 1 135.447 20.691 Q 134.824 21.475 133.821 22.002 A 4.398 4.398 0 0 1 132.633 22.413 Q 132.127 22.515 131.549 22.527 A 7.613 7.613 0 0 1 131.382 22.529 L 124.512 22.529 A 5.185 5.185 0 0 1 123.596 22.444 A 6.934 6.934 0 0 1 122.805 22.251 A 5.1 5.1 0 0 1 121.106 21.35 Q 120.322 20.728 119.795 19.724 A 4.398 4.398 0 0 1 119.383 18.536 Q 119.282 18.03 119.269 17.452 A 7.613 7.613 0 0 1 119.268 17.285 A 5.188 5.188 0 0 1 119.346 16.407 A 7.009 7.009 0 0 1 119.546 15.571 A 5.086 5.086 0 0 1 120.447 13.865 Q 121.069 13.081 122.073 12.554 A 4.398 4.398 0 0 1 123.261 12.142 Q 123.767 12.041 124.345 12.028 A 7.613 7.613 0 0 1 124.512 12.026 L 131.382 12.026 L 131.382 15.659 L 124.512 15.659 A 2.03 2.03 0 0 0 124.02 15.715 A 1.37 1.37 0 0 0 123.311 16.135 A 1.663 1.663 0 0 0 122.893 17.132 A 2.187 2.187 0 0 0 122.886 17.314 A 1.826 1.826 0 0 0 122.949 17.809 A 1.333 1.333 0 0 0 123.376 18.479 A 1.739 1.739 0 0 0 124.541 18.896 L 131.382 18.896 A 2.06 2.06 0 0 0 131.874 18.841 A 1.374 1.374 0 0 0 132.583 18.428 A 1.627 1.627 0 0 0 132.997 17.47 A 2.159 2.159 0 0 0 133.008 17.256 L 133.008 11.938 Q 133.008 11.191 132.546 10.752 A 1.578 1.578 0 0 0 131.564 10.32 A 2.106 2.106 0 0 0 131.382 10.313 L 123.018 10.313 L 123.018 6.694 L 131.382 6.694 A 5.185 5.185 0 0 1 132.298 6.78 A 6.934 6.934 0 0 1 133.088 6.973 A 5.1 5.1 0 0 1 134.788 7.874 Q 135.571 8.496 136.099 9.5 A 4.398 4.398 0 0 1 136.51 10.688 Q 136.611 11.193 136.624 11.772 A 7.613 7.613 0 0 1 136.626 11.938 Z M 171.929 17.183 L 165.059 17.183 L 165.059 13.564 L 171.929 13.564 A 2.03 2.03 0 0 0 172.421 13.508 A 1.37 1.37 0 0 0 173.13 13.088 A 1.663 1.663 0 0 0 173.547 12.092 A 2.187 2.187 0 0 0 173.555 11.909 A 1.889 1.889 0 0 0 173.493 11.414 A 1.365 1.365 0 0 0 173.079 10.737 A 1.661 1.661 0 0 0 171.96 10.313 A 2.117 2.117 0 0 0 171.929 10.312 L 165.059 10.313 A 2.03 2.03 0 0 0 164.566 10.369 A 1.37 1.37 0 0 0 163.857 10.789 A 1.663 1.663 0 0 0 163.44 11.785 A 2.187 2.187 0 0 0 163.433 11.968 L 163.433 17.285 Q 163.433 18.047 163.909 18.472 A 1.663 1.663 0 0 0 164.905 18.889 A 2.187 2.187 0 0 0 165.088 18.896 L 171.929 18.896 L 171.929 22.529 L 165.059 22.529 A 5.185 5.185 0 0 1 164.143 22.444 A 6.934 6.934 0 0 1 163.352 22.251 A 5.1 5.1 0 0 1 161.653 21.35 Q 160.869 20.728 160.342 19.724 A 4.398 4.398 0 0 1 159.93 18.536 Q 159.829 18.03 159.816 17.452 A 7.613 7.613 0 0 1 159.814 17.285 L 159.814 11.938 A 5.185 5.185 0 0 1 159.9 11.023 A 6.934 6.934 0 0 1 160.093 10.232 A 5.1 5.1 0 0 1 160.994 8.533 Q 161.616 7.749 162.62 7.222 A 4.398 4.398 0 0 1 163.808 6.81 Q 164.313 6.709 164.892 6.696 A 7.613 7.613 0 0 1 165.059 6.694 L 171.929 6.694 A 5.185 5.185 0 0 1 172.845 6.78 A 6.934 6.934 0 0 1 173.635 6.973 A 5.1 5.1 0 0 1 175.334 7.874 Q 176.118 8.496 176.646 9.5 A 4.398 4.398 0 0 1 177.057 10.688 Q 177.158 11.193 177.171 11.772 A 7.613 7.613 0 0 1 177.173 11.938 A 5.185 5.185 0 0 1 177.087 12.854 A 6.934 6.934 0 0 1 176.895 13.645 A 5.1 5.1 0 0 1 175.994 15.344 Q 175.371 16.128 174.368 16.655 A 4.398 4.398 0 0 1 173.18 17.067 Q 172.674 17.168 172.095 17.181 A 7.613 7.613 0 0 1 171.929 17.183 Z M 52.09 22.529 L 41.777 22.529 L 41.777 18.721 L 52.061 18.721 Q 52.837 18.721 53.232 18.325 Q 53.584 17.974 53.623 17.345 A 2.61 2.61 0 0 0 53.628 17.183 A 2.311 2.311 0 0 0 53.523 16.571 Q 53.223 15.659 52.09 15.659 L 46.187 15.659 A 6.028 6.028 0 0 1 45.226 15.587 Q 44.57 15.481 44.048 15.22 A 4.827 4.827 0 0 1 43.185 14.673 A 3.936 3.936 0 0 1 42.62 14.121 Q 42.07 13.462 41.829 12.7 Q 41.587 11.938 41.587 11.279 A 5.94 5.94 0 0 1 41.659 10.328 Q 41.744 9.804 41.929 9.37 A 3.387 3.387 0 0 1 42.041 9.133 A 4.631 4.631 0 0 1 42.654 8.225 A 3.915 3.915 0 0 1 43.184 7.72 Q 43.872 7.178 44.678 6.936 Q 45.483 6.694 46.187 6.694 L 55.547 6.694 L 55.547 10.503 L 46.216 10.503 A 2.122 2.122 0 0 0 46.045 10.509 Q 45.876 10.523 45.762 10.566 A 0.624 0.624 0 0 0 45.754 10.569 A 0.735 0.735 0 0 0 45.641 10.624 Q 45.581 10.66 45.539 10.705 A 0.399 0.399 0 0 0 45.505 10.745 Q 45.425 10.854 45.41 10.979 A 2.095 2.095 0 0 0 45.396 11.191 A 1.898 1.898 0 0 0 45.396 11.221 Q 45.405 11.374 45.44 11.483 A 0.562 0.562 0 0 0 45.483 11.587 A 0.56 0.56 0 0 0 45.552 11.685 A 0.408 0.408 0 0 0 45.667 11.777 A 0.563 0.563 0 0 0 45.848 11.836 A 0.688 0.688 0 0 0 45.916 11.843 A 5.172 5.172 0 0 0 46.178 11.851 A 4.727 4.727 0 0 0 46.187 11.851 L 52.09 11.851 A 6.806 6.806 0 0 1 53.208 11.938 Q 53.971 12.065 54.58 12.378 A 5.422 5.422 0 0 1 55.605 13.054 A 4.496 4.496 0 0 1 56.235 13.704 Q 56.865 14.502 57.151 15.439 Q 57.437 16.377 57.437 17.183 A 6.674 6.674 0 0 1 57.374 18.115 A 5.1 5.1 0 0 1 57.188 18.948 A 5.586 5.586 0 0 1 56.835 19.811 A 4.596 4.596 0 0 1 56.528 20.325 A 4.484 4.484 0 0 1 55.593 21.322 A 4.233 4.233 0 0 1 55.576 21.335 Q 55.034 21.753 54.441 22.017 Q 53.848 22.28 53.24 22.405 A 6.239 6.239 0 0 1 52.541 22.509 A 5.094 5.094 0 0 1 52.09 22.529 Z M 101.807 13.74 L 101.807 22.529 L 97.998 22.529 L 97.998 13.74 A 3.737 3.737 0 0 0 97.926 12.99 A 2.999 2.999 0 0 0 97.742 12.4 A 3.14 3.14 0 0 0 97.128 11.465 A 2.999 2.999 0 0 0 97.046 11.382 Q 96.606 10.957 96.013 10.73 A 3.484 3.484 0 0 0 94.944 10.508 A 4.046 4.046 0 0 0 94.731 10.503 L 88.066 10.503 L 88.066 22.529 L 84.258 22.529 L 84.258 8.584 A 1.883 1.883 0 0 1 84.376 7.915 A 1.801 1.801 0 0 1 84.404 7.844 A 1.825 1.825 0 0 1 84.814 7.244 Q 85.078 6.987 85.43 6.841 A 1.923 1.923 0 0 1 86.177 6.694 L 94.761 6.694 A 7.187 7.187 0 0 1 95.738 6.764 A 8.715 8.715 0 0 1 96.277 6.855 A 7.207 7.207 0 0 1 97.81 7.353 A 7.966 7.966 0 0 1 97.859 7.375 A 7.638 7.638 0 0 1 99.353 8.284 A 6.037 6.037 0 0 1 100.535 9.508 A 6.801 6.801 0 0 1 100.613 9.617 A 6.222 6.222 0 0 1 101.279 10.853 A 7.5 7.5 0 0 1 101.484 11.426 A 6.842 6.842 0 0 1 101.745 12.663 A 9.037 9.037 0 0 1 101.807 13.74 Z M 19.292 18.721 L 19.292 22.529 L 1.919 22.529 Q 1.509 22.529 1.157 22.383 Q 0.806 22.236 0.549 21.98 Q 0.293 21.724 0.146 21.372 A 1.93 1.93 0 0 1 0.002 20.712 A 2.238 2.238 0 0 1 0 20.61 L 0 1.523 L 3.809 1.523 L 3.809 18.721 L 19.292 18.721 Z M 154.731 6.694 L 158.774 6.694 Q 158.13 8.701 157.266 10.649 A 28.414 28.414 0 0 1 155.281 14.363 A 22.964 22.964 0 0 1 152.776 17.629 A 16.083 16.083 0 0 1 149.714 20.222 A 14.864 14.864 0 0 1 146.067 21.936 A 13.519 13.519 0 0 1 142.961 22.517 A 16.102 16.102 0 0 1 141.797 22.559 A 1.923 1.923 0 0 1 141.05 22.412 Q 140.698 22.266 140.435 22.009 A 1.825 1.825 0 0 1 140.024 21.409 A 1.863 1.863 0 0 1 139.878 20.694 A 2.127 2.127 0 0 1 139.878 20.669 L 139.878 6.694 L 143.687 6.694 L 143.687 18.604 A 6.229 6.229 0 0 0 146.36 18.003 A 10.424 10.424 0 0 0 148.569 16.596 A 11.712 11.712 0 0 0 148.784 16.414 Q 149.927 15.425 150.901 14.165 Q 151.875 12.905 152.637 11.58 A 24.552 24.552 0 0 0 153.577 9.781 A 21.108 21.108 0 0 0 153.933 8.979 A 22.346 22.346 0 0 0 154.296 8.061 Q 154.482 7.556 154.618 7.099 A 12.2 12.2 0 0 0 154.731 6.694 Z M 74.238 6.694 L 74.238 10.503 L 67.588 10.503 L 67.588 22.529 L 63.735 22.529 L 63.735 10.503 L 58.784 10.503 L 58.784 6.694 L 63.735 6.694 L 63.735 1.523 L 67.588 1.523 L 67.588 6.694 L 74.238 6.694 Z M 38.892 12.026 L 38.892 17.183 A 6.674 6.674 0 0 1 38.829 18.115 A 5.1 5.1 0 0 1 38.643 18.948 A 5.586 5.586 0 0 1 38.29 19.811 A 4.596 4.596 0 0 1 37.983 20.325 A 4.484 4.484 0 0 1 37.048 21.322 A 4.233 4.233 0 0 1 37.031 21.335 Q 36.489 21.753 35.896 22.017 Q 35.303 22.28 34.695 22.405 A 6.239 6.239 0 0 1 33.996 22.509 A 5.094 5.094 0 0 1 33.545 22.529 L 26.675 22.529 A 5.248 5.248 0 0 1 25.807 22.453 A 7.242 7.242 0 0 1 24.946 22.251 A 5.083 5.083 0 0 1 23.21 21.335 Q 22.412 20.698 21.877 19.68 Q 21.343 18.662 21.343 17.183 L 21.343 12.026 A 6.693 6.693 0 0 1 21.431 10.91 Q 21.56 10.148 21.877 9.543 A 5.568 5.568 0 0 1 22.584 8.494 A 4.676 4.676 0 0 1 23.21 7.888 A 5.083 5.083 0 0 1 24.946 6.973 A 7.261 7.261 0 0 1 25.793 6.773 Q 26.255 6.694 26.675 6.694 L 33.545 6.694 A 6.806 6.806 0 0 1 34.663 6.781 Q 35.426 6.909 36.035 7.222 A 5.422 5.422 0 0 1 37.06 7.898 A 4.496 4.496 0 0 1 37.69 8.547 Q 38.32 9.346 38.606 10.283 Q 38.892 11.221 38.892 12.026 Z M 119.004 6.694 L 119.004 10.503 L 110.435 10.503 Q 109.901 10.503 109.548 10.686 A 1.176 1.176 0 0 0 109.263 10.891 A 1.239 1.239 0 0 0 108.948 11.423 Q 108.867 11.688 108.867 12.026 L 108.867 22.529 L 105.059 22.529 L 105.059 12.026 A 6.634 6.634 0 0 1 105.121 11.096 A 5.005 5.005 0 0 1 105.308 10.269 A 5.387 5.387 0 0 1 105.685 9.37 A 4.538 4.538 0 0 1 105.974 8.899 A 4.656 4.656 0 0 1 106.833 7.968 A 4.358 4.358 0 0 1 106.934 7.888 Q 107.476 7.471 108.069 7.207 Q 108.662 6.943 109.27 6.819 A 6.335 6.335 0 0 1 109.92 6.719 A 4.959 4.959 0 0 1 110.405 6.694 L 119.004 6.694 Z M 80.61 6.694 L 80.61 22.529 L 76.802 22.529 L 76.802 6.694 L 80.61 6.694 Z M 35.083 17.183 L 35.083 12.056 A 2.513 2.513 0 0 0 35.048 11.622 Q 34.966 11.152 34.688 10.884 A 1.273 1.273 0 0 0 34.168 10.587 Q 33.972 10.526 33.736 10.51 A 2.671 2.671 0 0 0 33.545 10.503 L 26.704 10.503 A 2.393 2.393 0 0 0 26.264 10.541 Q 26.013 10.588 25.818 10.693 A 1.184 1.184 0 0 0 25.547 10.891 A 1.239 1.239 0 0 0 25.233 11.423 Q 25.151 11.688 25.151 12.026 L 25.151 17.183 A 2.256 2.256 0 0 0 25.193 17.63 Q 25.246 17.894 25.369 18.097 A 1.19 1.19 0 0 0 25.547 18.325 A 1.26 1.26 0 0 0 26.07 18.634 Q 26.347 18.721 26.704 18.721 L 33.545 18.721 A 2.419 2.419 0 0 0 33.981 18.684 Q 34.437 18.6 34.702 18.325 A 1.273 1.273 0 0 0 34.999 17.806 Q 35.059 17.61 35.076 17.373 A 2.671 2.671 0 0 0 35.083 17.183 Z M 80.61 0 L 80.61 3.442 L 76.802 3.442 L 76.802 0 L 80.61 0 Z" vector-effect="non-scaling-stroke"/></g></svg>